<?xml version="1.0" encoding="UTF-8"?>
<svg width="24px" height="28px" viewBox="0 0 24 28" version="1.1" xmlns="http://www.w3.org/2000/svg" xmlns:xlink="http://www.w3.org/1999/xlink">
    <title>1ECAAC8E-3E47-4CBE-82F3-CE3CD1C9EF93</title>
    <g id="Website" stroke="none" stroke-width="1" fill="none" fill-rule="evenodd">
        <g id="assets" transform="translate(-709.000000, -223.000000)" fill="#4E4C81">
            <g id="icon/diksha" transform="translate(709.000000, 223.000000)">
                <g id="Group-35" transform="translate(0.567857, 0.000000)">
                    <g id="Group" transform="translate(0.177778, 0.088889)">
                        <path d="M5.80736543,17.5454048 C4.5605032,16.5709284 2.91282415,15.8704528 1.9897982,15.5228569 L1.9897982,11.6230646 C1.9897982,11.0626086 1.54419947,10.6085826 0.994973121,10.6085826 C0.445746774,10.6085826 0.000148039447,11.0626086 0.000148039447,11.6230646 L0.000148039447,16.2169165 L0.000148039447,16.2286163 C-0.00762403151,16.6796229 0.278092101,17.0815661 0.700004524,17.2151698 C0.724060933,17.2230954 3.09639306,17.9801828 4.60676552,19.1648772 L4.63415282,19.1856348 C4.65820923,19.2026183 6.99279132,20.9262563 7.72965767,22.7959526 C7.94024374,23.3133837 8.52203878,23.5590785 9.02944399,23.3443314 C9.52981732,23.1333584 9.7722319,22.5532771 9.57570954,22.0388653 C8.64750221,19.6815534 6.0560717,17.7288267 5.80736543,17.5454048" id="Fill-6"></path>
                        <path d="M17.1701702,1.7475659 C16.6209438,1.7475659 16.1753451,2.20196926 16.1753451,2.76204783 L16.1753451,10.5140787 L16.1357445,10.5363459 C15.9284893,10.6548531 15.7256753,10.7741152 15.5239715,10.9001706 C15.1198238,11.1503943 14.7230781,11.416092 14.3348447,11.7074536 C13.9336577,12.0037216 13.5565273,12.3316921 13.2067841,12.6891007 C12.8655531,13.0517931 12.5557806,13.4439236 12.2807973,13.8609632 C12.1771697,14.0145697 12.0802039,14.170818 11.9858288,14.3289534 L11.9858288,7.88993698 C11.9858288,7.32985838 11.5406001,6.87545503 10.9913737,6.87545503 C10.4417773,6.87545503 9.99617856,7.32985838 9.99617856,7.88993698 L9.99617856,14.3334824 C9.90069314,14.1738373 9.80298709,14.0160793 9.69898939,13.8609632 C9.42363604,13.4439236 9.11386351,13.0517931 8.77300264,12.6891007 C8.42325946,12.3324469 8.04649907,12.0044764 7.64568229,11.7089633 C7.2574488,11.4176016 6.860333,11.151904 6.4565554,10.9016802 C6.25485165,10.7756247 6.05018713,10.6552305 5.8440422,10.5374782 C5.83071866,10.5299299 5.81776521,10.5227591 5.80481175,10.5152109 L5.80481175,2.76355747 C5.80481175,2.20347891 5.35921302,1.74907554 4.80998667,1.74907554 C4.26039022,1.74907554 3.81516159,2.20347891 3.81516159,2.76355747 L3.81516159,11.1213336 C3.81516159,11.5259187 4.0516546,11.8923852 4.41583164,12.0527851 C4.5886677,12.1309092 4.79259204,12.2286588 4.97986194,12.3230117 C5.16750193,12.4173645 5.35995322,12.517756 5.54685302,12.6215441 C5.92028252,12.8272333 6.28445958,13.0449997 6.62791105,13.2771077 C6.95877922,13.495629 7.2722528,13.7409464 7.56500075,14.0107956 C7.8484963,14.2870607 8.10978595,14.5871028 8.34442848,14.9071477 C8.83332871,15.564221 9.23229506,16.2858317 9.53133472,17.0519769 C9.67567316,17.4259916 9.79077388,17.8113287 9.87515634,18.204214 C9.9454751,18.5567163 9.98618593,18.9148797 9.99654871,19.2745528 L9.99654871,19.305878 C9.99654871,19.8663339 10.4421474,20.3207373 10.9917439,20.3207373 C11.5409702,20.3207373 11.9861988,19.8663339 11.9861988,19.305878 L11.9861988,19.2062413 C11.9995224,18.8692129 12.039493,18.534449 12.1050005,18.204214 C12.1904933,17.8113287 12.305594,17.4259916 12.4506726,17.0519769 C12.7497123,16.2858317 13.1490487,15.564221 13.6375789,14.9071477 C13.8722214,14.5871028 14.1324008,14.2874382 14.4162664,14.0115504 C14.7090143,13.7417012 15.0221178,13.4963838 15.3533561,13.2778626 C15.6968076,13.0461319 16.0609846,12.8279881 16.4344141,12.6222989 C16.6202036,12.5185107 16.8104343,12.4203838 17.0010351,12.3237665 C17.1916359,12.2271491 17.391119,12.131664 17.5646953,12.0535398 C17.9296125,11.89314 18.1657354,11.527051 18.1661055,11.1220885 L18.1661055,2.76204783 C18.1661055,2.20196926 17.7205068,1.7475659 17.1712805,1.7475659 L17.1701702,1.7475659 Z" id="Fill-4"></path>
                        <path d="M20.7193789,10.6086202 C20.1701525,10.6086202 19.7245538,11.0626462 19.7245538,11.6231021 L19.7245538,15.5228945 C18.8015278,15.870113 17.1534787,16.570966 15.9066165,17.5454424 L15.9088371,17.5480842 C15.3525789,17.9598401 14.8285192,18.4149983 14.3414694,18.9094073 C11.6926737,21.6101634 10.1427006,25.2491645 10.0775633,25.4027709 C9.86031541,25.9175601 10.0934775,26.514625 10.5979219,26.7357881 C11.1031066,26.9577061 11.6882324,26.7199368 11.9054804,26.2051476 C11.9202843,26.1700484 13.3762523,22.7642876 15.7482143,20.3450803 C16.1623546,19.924644 16.6079534,19.5370425 17.0809394,19.1868046 L17.1079566,19.1668018 C18.6183291,17.9817299 20.9906612,17.2246426 21.0147176,17.2170944 C21.4370001,17.0831133 21.7223461,16.6815476 21.7145741,16.2305409 L21.7145741,16.2184637 L21.7145741,11.6231021 C21.7145741,11.0626462 21.2693454,10.6086202 20.7201191,10.6086202 L20.7193789,10.6086202 Z" id="Fill-17"></path>
                        <path d="M10.9948896,0.377222996 C12.1569993,0.377222996 13.0989003,1.33773509 13.0989003,2.52280699 C13.0989003,3.70712406 12.1569993,4.66763616 10.9948896,4.66763616 C9.83315006,4.66763616 8.89124908,3.70712406 8.89124908,2.52280699 C8.89124908,1.33773509 9.83315006,0.377222996 10.9948896,0.377222996" id="Fill-1"></path>
                    </g>
                </g>
            </g>
        </g>
    </g>
</svg>