<?xml version="1.0" encoding="UTF-8"?>
<svg width="27px" height="26px" viewBox="0 0 27 26" version="1.1" xmlns="http://www.w3.org/2000/svg" xmlns:xlink="http://www.w3.org/1999/xlink">
    <title>1AF9ED57-96A9-4660-940E-498A04E0EB84</title>
    <g id="Website" stroke="none" stroke-width="1" fill="none" fill-rule="evenodd" stroke-linecap="round" stroke-linejoin="round">
        <g id="assets" transform="translate(-864.000000, -224.000000)" stroke="#4E4C81" stroke-width="2">
            <g id="icon/contribute" transform="translate(865.000000, 225.000000)">
                <path d="M20.1051962,14.4395831 C20.1051962,14.7445075 20.0851713,15.0403298 20.0460318,15.3352418 C18.7353118,14.8919635 17.278046,15.4244435 16.5589705,16.6559742 C15.8389847,17.8865946 16.1247945,19.4330621 17.1597171,20.3305412 C15.9281865,21.2753519 14.3917314,21.8269465 12.7169225,21.8269465 C11.0421137,21.8269465 9.50474838,21.2753519 8.27412796,20.3305412 C9.3090506,19.4330621 9.59395016,17.8865946 8.87487461,16.6559742 C8.15579907,15.4244435 6.69853332,14.8919635 5.38781334,15.3352418 C5.34867378,15.0403298 5.32955912,14.7445075 5.32955912,14.4395831 C5.32955912,11.3857876 7.18095109,8.76525786 9.82059548,7.64204366 C10.0863804,8.99190319 11.2787715,10.006801 12.7169225,10.006801 C14.1550736,10.006801 15.3465545,8.99190319 15.6123394,7.64204366 C18.252894,8.76525786 20.1051962,11.3857876 20.1051962,14.4395831 Z" id="Stroke-1"></path>
                <path d="M15.6724141,3.18304706 C15.6724141,3.38056528 15.6523892,3.57717328 15.6132496,3.77378127 C15.3474647,5.12364081 14.1550736,6.13853857 12.7169225,6.13853857 C11.2787715,6.13853857 10.0863804,5.12364081 9.82059548,3.77378127 C9.78145593,3.57717328 9.76234126,3.38056528 9.76234126,3.18304706 C9.76234126,1.54737776 11.0821635,0.227555556 12.7169225,0.227555556 C14.3525919,0.227555556 15.6724141,1.54737776 15.6724141,3.18304706 Z" id="Stroke-3"></path>
                <path d="M5.16872444,22.2810182 C5.02126845,22.4284742 4.8638,22.5468031 4.68630667,22.6451071 C3.2772827,23.4624866 1.47413251,22.9700564 0.657663186,21.5619426 C-0.159716356,20.1529187 0.322701414,18.3406662 1.73172539,17.5223765 C1.9083085,17.4240725 2.09581427,17.3348707 2.28240983,17.2866289 C3.5931298,16.8424405 5.05039556,17.3749205 5.7694711,18.6064511 C6.48854664,19.8370716 6.20364709,21.3844493 5.16872444,22.2810182 Z" id="Stroke-5"></path>
                <path d="M24.4957821,21.5619426 C23.6784025,22.9700564 21.8752524,23.4624866 20.4662284,22.6451071 C20.2896453,22.5468031 20.1312666,22.4284742 19.9838106,22.2810182 C18.948888,21.3844493 18.6639884,19.8370716 19.383064,18.6064511 C20.1021395,17.3749205 21.5594052,16.8424405 22.8701252,17.2866289 C23.057631,17.3348707 23.2442266,17.4240725 23.4217199,17.5232867 C24.8298336,18.3406662 25.3122514,20.1529187 24.4957821,21.5619426 Z" id="Stroke-7"></path>
            </g>
        </g>
    </g>
</svg>