<svg xmlns="http://www.w3.org/2000/svg" width="53.333" height="36" viewBox="0 0 40 27" xmlns:v="https://vecta.io/nano"><path d="M0 0h40v27H0z" fill="rgb(100%,60%,20%)"/><path d="M0 9h40v9H0zm0 0" fill="rgb(100%,100%,100%)"/><path d="M0 18h40v9H0zm0 0" fill="rgb(7.058824%,53.333333%,2.745098%)"/><path d="M23.555 13.5c0 1.988-1.6 3.602-3.555 3.602s-3.555-1.613-3.555-3.602 1.6-3.602 3.555-3.602 3.555 1.613 3.555 3.602zm0 0" fill="rgb(0%,0%,53.333333%)"/><path d="M23.11 13.5c0 1.738-1.39 3.148-3.11 3.148s-3.11-1.4-3.11-3.148 1.39-3.148 3.11-3.148 3.11 1.4 3.11 3.148zm0 0" fill="rgb(100%,100%,100%)"/><g fill="rgb(0%,0%,53.333333%)"><path d="M20.62 13.5c0 .348-.277.63-.62.63s-.62-.28-.62-.63.277-.63.62-.63.62.28.62.63zm2.618.434c-.012.086-.1.145-.176.133s-.145-.1-.133-.176.1-.148.176-.137.145.1.133.18zm0 0"/><path d="M20 16.648l.105-1.887-.105-.9-.105.902zm3.02-1.882c-.035.082-.125.117-.203.086a.16.16 0 0 1-.086-.207c.03-.078.125-.117.203-.086s.117.125.086.207zm0 0"/><path d="M19.195 16.543l.586-1.797.125-.898-.332.84zm3.405-1.03c-.05.07-.148.082-.215.03s-.082-.152-.03-.223.152-.082.22-.027.082.152.027.22zm0 0"/><path d="M18.445 16.227l1.023-1.582.352-.832-.535.727zm3.543-.102c-.066.05-.164.04-.22-.03s-.04-.168.03-.22.164-.04.215.027.043.168-.027.223zm0 0"/><path d="M17.8 15.727l1.395-1.258.555-.715-.707.563zm3.45.828c-.078.035-.172-.004-.203-.086s.004-.172.086-.203.168.004.203.086-.008.172-.086.203zm0 0"/><path d="M17.305 15.074l1.672-.852.715-.543-.824.355zm3.12 1.703c-.086.012-.164-.047-.176-.133s.05-.168.137-.176.164.047.172.133-.047.168-.133.176zm0 0"/><path d="M16.996 14.316l1.828-.387.832-.336-.887.13zm2.578 2.46c-.086-.008-.145-.1-.133-.176s.086-.145.172-.133.145.1.137.176-.1.145-.176.133zm0 0"/><path d="M16.9 13.5l1.863.1.9-.1-.9-.1zm1.86 3.055c-.078-.03-.117-.125-.086-.203s.125-.12.203-.086a.16.16 0 0 1 .086.203c-.03.078-.125.12-.203.086zm0 0"/><path d="M16.996 12.684l1.773.594.887.13-.832-.336zm1.016 3.44c-.07-.055-.082-.152-.027-.223s.148-.082.215-.027a.16.16 0 0 1 .03.22c-.052.068-.152.082-.22.03zm0 0"/><path d="M17.305 11.926l1.563 1.04.824.355-.715-.543zm.095 3.586c-.055-.066-.043-.168.027-.22s.164-.04.22.027.04.168-.03.223-.164.04-.215-.03zm0 0"/><path d="M17.8 11.273l1.242 1.4.707.563-.555-.715zm-.82 3.493c-.03-.082.008-.172.086-.207s.172.008.203.086a.16.16 0 0 1-.086.207c-.078.03-.168-.004-.203-.086zm0 0"/><path d="M18.445 10.773l.84 1.688.535.727-.352-.832zm-1.683 3.16c-.012-.1.047-.168.133-.18s.164.05.176.137-.05.164-.133.176-.164-.047-.176-.133zm0 0"/><path d="M19.195 10.457l.38 1.855.332.84-.125-.898zm-2.433 2.61c.012-.086.1-.145.176-.133s.145.1.133.176-.1.148-.176.137-.145-.1-.133-.18zm0 0"/><path d="M20 10.352l-.105 1.887.105.902.105-.902zm-3.02 1.882c.035-.082.125-.117.203-.086a.16.16 0 0 1 .086.207c-.03.078-.125.117-.203.086s-.117-.125-.086-.207zm0 0"/><path d="M20.805 10.457l-.586 1.797-.125.898.332-.84zm-3.405 1.03c.05-.07.148-.082.215-.03s.082.152.03.223-.152.082-.22.027-.082-.152-.027-.22zm0 0"/><path d="M21.555 10.773l-1.023 1.582-.352.832.535-.727zm-3.543.102c.066-.05.164-.04.22.03s.04.168-.03.22-.164.04-.215-.027-.043-.168.027-.223zm0 0"/><path d="M22.2 11.273l-1.395 1.258-.555.715.707-.562zm-3.45-.828c.078-.035.172.004.203.086s-.004.172-.086.203-.168-.004-.203-.086.008-.172.086-.203zm0 0"/><path d="M22.695 11.926l-1.672.852-.715.543.824-.355zm-3.12-1.703c.086-.012.164.047.176.133s-.05.168-.137.176-.164-.047-.172-.133.047-.168.133-.176zm0 0"/><path d="M23.004 12.684l-1.828.387-.832.336.887-.13zm-2.578-2.46c.086.008.145.1.133.176s-.086.145-.172.133-.145-.1-.137-.176.1-.145.176-.133zm0 0"/><path d="M23.1 13.5l-1.863-.1-.9.1.9.1zm-1.86-3.055c.078.03.117.125.086.203s-.125.12-.203.086a.16.16 0 0 1-.086-.203c.03-.078.125-.12.203-.086zm0 0"/><path d="M23.004 14.316l-1.773-.594-.887-.13.832.336zm-1.016-3.44c.07.055.082.152.027.223s-.148.082-.215.027a.16.16 0 0 1-.03-.22c.052-.068.152-.082.22-.03zm0 0"/><path d="M22.695 15.074l-1.562-1.04-.824-.355.715.543zm-.095-3.586c.055.066.043.168-.027.22s-.164.04-.22-.027-.04-.168.03-.223.164-.04.215.03zm0 0"/><path d="M22.2 15.727l-1.242-1.4-.707-.562.555.715zm.82-3.493c.03.082-.008.172-.086.207s-.172-.008-.203-.086a.16.16 0 0 1 .086-.207c.078-.03.168.004.203.086zm0 0"/><path d="M21.555 16.227l-.84-1.688-.535-.727.352.832zm1.683-3.16c.012.1-.047.168-.133.18s-.164-.05-.176-.137.05-.164.133-.176.164.047.176.133zm-2.433 3.477l-.38-1.855-.332-.84.125.898zm0 0"/></g></svg>