<svg width="403" height="376" viewBox="0 0 403 376" xmlns="http://www.w3.org/2000/svg" xmlns:xlink="http://www.w3.org/1999/xlink"><title>4F82C81E-0149-4FB6-BB35-E19C7A2D6542</title><defs><path id="path-1" d="M0 .0457716525H155.620511V79.8612774H0z"/><path id="path-3" d="M0 .0554389411H188.488637V96.72853H0z"/><rect id="path-5" x="118.852994" y="0" width="188.663698" height="347.989331" rx="40"/><filter x="-11.7%" y="-5.7%" width="123.3%" height="112.6%" filterUnits="objectBoundingBox" id="filter-6"><feOffset dx="0" dy="2" in="SourceAlpha" result="shadowOffsetOuter1"/><feGaussianBlur stdDeviation="7" in="shadowOffsetOuter1" result="shadowBlurOuter1"/><feComposite in="shadowBlurOuter1" in2="SourceAlpha" operator="out" result="shadowBlurOuter1"/><feColorMatrix values="0 0 0 0 0.166808197 0 0 0 0 0.166808197 0 0 0 0 0.166808197 0 0 0 0.309440559 0" type="matrix" in="shadowBlurOuter1"/></filter><filter x="-11.1%" y="-5.5%" width="122.3%" height="112.1%" filterUnits="objectBoundingBox" id="filter-7"><feGaussianBlur stdDeviation="6.5" in="SourceAlpha" result="shadowBlurInner1"/><feOffset dx="0" dy="1" in="shadowBlurInner1" result="shadowOffsetInner1"/><feComposite in="shadowOffsetInner1" in2="SourceAlpha" operator="arithmetic" k2="-1" k3="1" result="shadowInnerInner1"/><feColorMatrix values="0 0 0 0 0.684046649 0 0 0 0 0.684046649 0 0 0 0 0.684046649 0 0 0 0.542613636 0" type="matrix" in="shadowInnerInner1"/></filter><linearGradient x1="50%" y1="0" x2="50%" y2="100%" id="linearGradient-8"><stop stop-color="#fff" offset="0"/><stop stop-color="#f0f0f0" offset="100%"/></linearGradient><circle id="path-9" cx="71.7221668" cy="71.7221668" r="55.3306343"/><filter x="-33.4%" y="-31.6%" width="166.9%" height="166.9%" filterUnits="objectBoundingBox" id="filter-10"><feOffset dx="0" dy="2" in="SourceAlpha" result="shadowOffsetOuter1"/><feGaussianBlur stdDeviation="12" in="shadowOffsetOuter1" result="shadowBlurOuter1"/><feColorMatrix values="0 0 0 0 0 0 0 0 0 0 0 0 0 0 0 0 0 0 0.2 0" type="matrix" in="shadowBlurOuter1"/></filter><path id="path-11" d="M.0132324038.129554656H6.28153236V6.3572244H.0132324038z"/><path id="path-13" d="M0 .0237774689H14.3668679V18.6243751H0z"/><path id="path-15" d="M0 51.1527158H32.3493679V.16538522H0z"/></defs><g id="Website" stroke="none" stroke-width="1" fill="none" fill-rule="evenodd"><g id="assets" transform="translate(-77.000000, -1274.000000)"><g id="Group-5" transform="translate(77.000000, 1286.000000)"><g id="Group-34" transform="translate(0.094560, 186.140414)"><g id="Group-8" transform="translate(0.000000, 76.102186)"><g id="Group-3"><mask id="mask-2" fill="#fff"><use xlink:href="#path-1"/></mask><g id="Clip-2"/><path d="M68.435241 65.2783307C53.9990961 69.5870266 39.4096224 58.5179217 40.3326931 43.4800771 40.3536016 43.1285049 40.3807052 42.7839021 40.4140039 42.4454945 41.3680501 32.6270265-4.15513478 21.0228192.307664433 8.5265168 4.77123804-3.96978564 45.8308494-4.86265524 68.1456198 21.0228192 90.4603903 46.9082937 102.56795 36.6422293 113.473659 34.6350151 124.379368 32.6270265 135.983575 38.8747905 140.446374 50.4789977 144.909174 62.0824306 139.553505 74.578733 155.620511 76.3636978 155.620511 76.3636978 129.735037 87.0750354 105.634527 71.008029 91.0737058 61.3010729 77.1649192 62.6725144 68.435241 65.2783307" id="Fill-1" fill="#024f9d" mask="url(#mask-2)"/></g><path d="M13.3190899 9.51711419c0 0 33.5255885 18.148561909999998 44.2059506 26.250211309999997C68.206177 43.8705237 78.1508703 51.6058874 96.9344306 51.9737218 109.33316 52.2168797 119.806761 59.8422804 125.493867 64.998157 131.252218 70.2175335 138.196157 74.0174564 145.780515 75.7133666 149.077086 76.4513586 152.499107 76.8083515 155.620666 76.3638527" id="Stroke-4" stroke="#0065cb" stroke-width="1.54000001" stroke-linecap="round"/><path id="Stroke-6" stroke="#0065cb" stroke-width="1.54000001" stroke-linecap="round" d="M34.9376854 10.8564186 40.2205617 24.7117723 23.9622814 21.8318226"/><path d="M45.9122376 43.0381338 65.8000754 41.8370577z" id="Stroke-8" stroke="#0065cb" stroke-width="1.54000001" stroke-linecap="round"/><path d="M54.2369107 19.5614713 57.5249631 35.7678676z" id="Stroke-10" stroke="#0065cb" stroke-width="1.54000001" stroke-linecap="round"/><path id="Stroke-12" stroke="#0065cb" stroke-width="1.54000001" stroke-linecap="round" d="M70.0157673 35.0771907 82.5647282 49.7983105H59.9100013"/><path id="Stroke-14" stroke="#0065cb" stroke-width="1.54000001" stroke-linecap="round" d="M91.9527912 42.4376732 106.454759 53.5811194 93.647927 57.8139253"/></g><g id="Group-17" transform="translate(98.948121, 66.597100) scale(-1, 1) rotate(11.000000) translate(-98.948121, -66.597100) translate(52.448121, 8.097100)"><path d="M32.6051734 66.7727302c0 0-39.63097644-29.525210099999995-18.1914855-45.3769369C35.8542851 5.54517277 42.9996758 57.6758812 32.6051734 66.7727302z" id="Stroke-1" fill="#00c786"/><path d="M17.6619146 103.216878C17.6619146 103.216878-10.9605802 77.8921706 4.66878656 66.7730621 20.297047 55.6517411 23.5096519 91.5855669 17.6619146 103.216878z" id="Stroke-3" fill="#fbbd52"/><path d="M62.2907925 106.559469C58.0725893 112.090814 47.1559279 118.843479 20.3886461 105.796144c0 0 16.8340936-16.394905100000003 30.1922903-14.370432999999991C55.9728909 92.2432437 59.3193543 94.0818626 61.3947147 95.9835388 64.387172 98.7281919 64.753347 103.331377 62.2907925 106.559469z" id="Stroke-5" fill="#63c9f6"/><path d="M38.2348651 70.173622C38.2348651 70.173622 56.6531357 53.8329244 71.0246747 53.7045972 79.2000017 53.6315835 84.6904142 56.3076479 87.903019 58.6274937 91.3224961 61.0955796 93.0538069 65.4166658 91.8712055 69.4645037 90.6089527 73.7878025 86.0179368 78.373287 72.2382516 78.406475 46.1291998 78.4717449 38.2348651 70.173622 38.2348651 70.173622z" id="Stroke-7" fill="#fbbd52"/><path d="M50.7840474 45.6833734C50.7840474 45.6833734 50.5804939 21.5976874 59.2846174 10.2628564 67.9876347-1.07086828 77.702888-1.8806571 82.9654091 2.36962794 88.2279302 6.61991298 91.8719799 16.8584315 84.1789861 27.3237351 76.4882048 37.7890387 50.7840474 45.6833734 50.7840474 45.6833734z" id="Stroke-9" fill="#e55a28"/><path d="M15.3704998 116.744887c0 0 25.857928900000005-71.8599078 61.158968800000004-106.3743906" id="Stroke-11" stroke="#345c80" stroke-width="2.20000005" stroke-linecap="round"/><path d="M18.2928197 32.9676977c0 0 12.8692259 19.351961499999994 17.5653373 37.221522699999994C35.858157 70.1892204 55.3937592 61.7329011 79.0037496 64.6634074" id="Stroke-13" stroke="#345c80" stroke-width="2.20000005" stroke-linecap="round"/><path d="M56.2938195 100.87369C43.0274431 99.5240417 20.3887567 105.79548 20.3887567 105.79548 20.3887567 105.79548 10.8648879 92.6353054 10.194489 82.8138503" id="Stroke-15" stroke="#345c80" stroke-width="2.20000005" stroke-linecap="round"/></g></g><g id="Group-34-Copy" transform="translate(308.118177, 248.076987) scale(-1, 1) translate(-308.118177, -248.076987) translate(213.618177, 153.076987)"><g id="Group-8" transform="translate(0.000000, 92.175492)"><g id="Group-3"><mask id="mask-4" fill="#fff"><use xlink:href="#path-3"/></mask><g id="Clip-2"/><path d="M82.8892359 79.0655643C65.4040776 84.2842866 47.7332064 70.8773103 48.8512361 52.6633693 48.8765606 52.2375426 48.9093886 51.8201573 48.9497202 51.4102757 50.1052676 39.5180795-5.03272791 25.4629836.372645283 10.327376 5.77895642-4.80823174 55.5106408-5.88968156 82.5384447 25.4629836 109.566249 56.8156489 124.231008 44.3813208 137.440078 41.9501691 150.649148 39.5180795 164.704244 47.0854143 170.109617 61.1405102 175.514991 75.194668 169.028167 90.3302757 188.488637 92.4922374 188.488637 92.4922374 157.135971 105.465883 127.945268 86.0054144 110.309101 74.2482822 93.4626823 75.9093816 82.8892359 79.0655643" id="Fill-1" fill="#024f9d" mask="url(#mask-4)"/></g><path d="M16.1321735 11.5271943C16.1321735 11.5271943 56.7385975 33.5088577 69.6747258 43.3216313 82.611792 53.1362808 94.6568731 62.5054068 117.407651 62.9509303 132.425078 63.2454448 145.110775 72.4813827 151.999038 78.726216 158.973592 85.0479608 167.384139 89.6504537 176.570365 91.7045518 180.563194 92.5984127 184.70797 93.0308051 188.488824 92.492425" id="Stroke-4" stroke="#0065cb" stroke-width="1.54000001" stroke-linecap="round"/><path id="Stroke-6" stroke="#0065cb" stroke-width="1.54000001" stroke-linecap="round" d="M42.3167655 13.1493691 48.7154217 29.9310691 29.0232805 26.4428541"/><path d="M55.6092188 52.1280845 79.6975051 50.6733328z" id="Stroke-8" stroke="#0065cb" stroke-width="1.54000001" stroke-linecap="round"/><path d="M65.6921203 23.6929889 69.674632 43.3222879z" id="Stroke-10" stroke="#0065cb" stroke-width="1.54000001" stroke-linecap="round"/><path id="Stroke-12" stroke="#0065cb" stroke-width="1.54000001" stroke-linecap="round" d="M84.8035803 42.4857353 100.002968 60.3160571H72.5634067"/><path id="Stroke-14" stroke="#7d7ba2" stroke-width="1.54000001" stroke-linecap="round" d="M111.373855 51.4008024 128.938738 64.8978214 113.427015 70.0246251"/></g><g id="Group-17" transform="translate(90.189420, 80.743338) scale(-1, 1) rotate(11.000000) translate(-90.189420, -80.743338) translate(34.189420, 9.743338)"><path d="M39.4916108 80.8755914C39.4916108 80.8755914-8.50970109 45.1144532 17.4579582 25.9147324 43.4269573 6.7163515 52.0815038 69.8574251 39.4916108 80.8755914z" id="Stroke-1" fill="#00c786"/><path d="M21.3922327 125.016994C21.3922327 125.016994-13.2755303 94.3435343 5.65486648 80.8759933 24.5839234 67.4057726 28.4750525 110.92907 21.3922327 125.016994z" id="Stroke-3" fill="#fbbd52"/><path d="M75.4470375 129.065564C70.3379206 135.765167 57.1155851 143.944041 24.6948688 128.141019 24.6948688 128.141019 45.084439 108.283397 61.263979 110.735452 67.7947515 111.725653 71.848011 113.952601 74.3617019 116.255924 77.9861868 119.580267 78.4297005 125.155676 75.4470375 129.065564z" id="Stroke-5" fill="#63c9f6"/><path d="M46.3103322 84.994775C46.3103322 84.994775 68.6186686 65.2028093 86.0255758 65.0473785 95.9275883 64.9589438 102.577614 68.2002114 106.468743 71.0100247 110.610437 73.9993874 112.707413 79.2331168 111.275038 84.1358859 109.746188 89.3722952 104.185518 94.9262657 87.4954686 94.9664633 55.8720049 95.0455186 46.3103322 84.994775 46.3103322 84.994775z" id="Stroke-7" fill="#fbbd52"/><path d="M61.5099884 55.332017C61.5099884 55.332017 61.263443 26.1592679 71.8059375 12.4304425 82.3470921-1.29704304 94.1142739-2.27786485 100.488276 2.87010971 106.862277 8.01808426 111.275976 20.4190485 101.958168 33.0946964 92.6430412 45.7703443 61.5099884 55.332017 61.5099884 55.332017z" id="Stroke-9" fill="#e55a28"/><path d="M18.6168554 141.402212C18.6168554 141.402212 49.9361571 54.3649963 92.6930202 12.5608167" id="Stroke-11" stroke="#345c80" stroke-width="2.20000005" stroke-linecap="round"/><path d="M22.1563894 39.9307028c0 0 15.587295100000002 23.4392292 21.2752577 45.082964999999994.0.0 23.661656-10.2423522 52.25823930000001-6.692902799999999" id="Stroke-13" stroke="#345c80" stroke-width="2.20000005" stroke-linecap="round"/><path d="M68.1834624 122.178909C52.1151358 120.544206 24.6950028 128.140215 24.6950028 128.140215 24.6950028 128.140215 13.1596272 112.200521 12.3476354 100.304707" id="Stroke-15" stroke="#345c80" stroke-width="2.20000005" stroke-linecap="round"/></g></g><g id="Rectangle"><use fill="#000" fill-opacity="1" filter="url(#filter-6)" xlink:href="#path-5"/><use fill="#fff" fill-rule="evenodd" xlink:href="#path-5"/><use fill="#000" fill-opacity="1" filter="url(#filter-7)" xlink:href="#path-5"/><rect stroke="#dcdcdc" stroke-width=".5" stroke-linejoin="square" x="119.102994" y=".25" width="188.163698" height="347.489331" rx="40"/></g><rect id="Rectangle-Copy-6" stroke="#dcdcdc" stroke-width=".5" fill="#fff" x="123.434843" y="4.24466541" width="179.5" height="339.4" rx="40"/><g id="Group-29" transform="translate(141.072347, 62.469699)"><circle id="Oval" fill="#d8d8d8" opacity=".346749442" cx="71.7221668" cy="71.7221668" r="71.7221668"/><g id="Oval-Copy-16"><use fill="#000" fill-opacity="1" filter="url(#filter-10)" xlink:href="#path-9"/><use fill="url(#linearGradient-8)" fill-rule="evenodd" xlink:href="#path-9"/></g><g id="Group-2" transform="translate(55.347211, 51.573655)"><g id="Group-15" transform="translate(0.082008, 0.000000)"><g id="Group" transform="translate(0.125848, 0.000000)"><g id="Group-3" transform="translate(13.232404, 0.035831)"><mask id="mask-12" fill="#fff"><use xlink:href="#path-11"/></mask><g id="Clip-2"/><path d="M3.14710671.129061575C4.87834621.129061575 6.28153236 1.5233855 6.28153236 3.24369086 6.28153236 4.96290048 4.87834621 6.3572244 3.14710671 6.3572244 1.41641856 6.3572244.0132324038 4.96290048.0132324038 3.24369086.0132324038 1.5233855 1.41641856.129061575 3.14710671.129061575" id="Fill-1" fill="#e55a28" mask="url(#mask-12)"/></g><path d="M25.5790636 2.15414587C24.76086 2.15414587 24.0970344 2.81377888 24.0970344 3.62681491V14.8800226L24.0380399 14.9123468C23.7292838 15.0843773 23.4271439 15.2575036 23.1266581 15.4404915 22.5245837 15.8037279 21.9335364 16.189427 21.35517 16.612381 20.7575065 17.0424573 20.1956807 17.5185546 19.6746548 18.0373855 19.1663099 18.5638866 18.7048298 19.1331214 18.2951767 19.7385155 18.1407986 19.9614978 17.9963449 20.1883151 17.8557506 20.4178718V11.0706967C17.8557506 10.2576607 17.1924763 9.59802768 16.3742727 9.59802768 15.5555177 9.59802768 14.8916921 10.2576607 14.8916921 11.0706967v9.3537495C14.7494438 20.192698 14.6038873 19.9636892 14.4489579 19.7385155 14.0387534 19.1331214 13.5772733 18.5638866 13.0694798 18.0373855 12.5484539 17.5196503 11.9871795 17.0435531 11.3900673 16.6145725 10.8117009 16.1916184 10.2201022 15.8059194 9.6185792 15.4426829 9.31809337 15.259695 9.01319673 15.0849252 8.70609469 14.9139904 8.68624608 14.903033 8.66694883 14.8926235 8.64765157 14.8816662V3.62900639C8.64765157 2.81597035 7.98382598 2.15633734 7.16562234 2.15633734 6.34686736 2.15633734 5.68359312 2.81597035 5.68359312 3.62900639V15.7615421C5.68359312 16.3488565 6.03590587 16.8808363 6.57843443 17.1136802 6.83591495 17.2270888 7.13970889 17.3689866 7.41869207 17.5059536 7.6982266 17.6429206 7.98492868 17.7886535 8.26336051 17.9393172 8.81967282 18.2379052 9.36220138 18.554025 9.87385433 18.8909638 10.3667614 19.2081793 10.833755 19.5642935 11.2698729 19.9560191 11.6922072 20.3570584 12.0814604 20.7926135 12.4310164 21.2572055 13.1593499 22.2110436 13.7537054 23.2585671 14.1991963 24.370739 14.4142229 24.9136762 14.5856928 25.4730493 14.7114006 26.0433799 14.8161572 26.5550885 14.8768057 27.0750152 14.8922435 27.5971334V27.6426064C14.8922435 28.4561903 15.5560691 29.1158233 16.3748241 29.1158233 17.1930277 29.1158233 17.8563019 28.4561903 17.8563019 27.6426064V27.4979693C17.8761505 27.0087232 17.9356964 26.5227643 18.0332853 26.0433799 18.1606472 25.4730493 18.3321171 24.9136762 18.5482464 24.370739 18.9937373 23.2585671 19.5886441 22.2110436 20.3164263 21.2572055 20.6659823 20.7926135 21.0535815 20.3576063 21.4764671 19.9571148 21.9125851 19.5653892 22.3790273 19.2092751 22.8724857 18.8920595 23.3841386 18.5556686 23.9266672 18.2390009 24.4829795 17.9404129 24.7597573 17.7897492 25.0431513 17.6473036 25.3270966 17.5070494 25.6110419 17.3667952 25.9082197 17.2281846 26.1668029 17.1147759 26.7104341 16.881932 27.0621955 16.3505001 27.0627469 15.7626378V3.62681491C27.0627469 2.81377888 26.3989213 2.15414587 25.5807177 2.15414587H25.5790636z" id="Fill-4" fill="#024f9d"/><g id="Group-8" transform="translate(0.000000, 14.993431)"><mask id="mask-14" fill="#fff"><use xlink:href="#path-13"/></mask><g id="Clip-7"/><path d="M8.65145589 10.0935903C6.7939572 8.67899531 4.33934629 7.6621524 2.964279 7.15756602V1.49644651C2.964279.68286261 2.3004534.0237774689 1.48224977.0237774689.664046132.0237774689.000220540064.68286261.000220540064 1.49644651V8.16509517 8.18207908C-.0113578133 8.83678128.41428451 9.42026064 1.04282369 9.61420589 1.07866145 9.62571112 4.61281597 10.7247342 6.86287597 12.4444917L6.90367588 12.4746244C6.93951364 12.4992785 10.4174304 15.0013914 11.5151686 17.7155292 11.8288869 18.4666562 12.6956093 18.8233182 13.4515104 18.5115814 14.1969358 18.2053232 14.5580701 17.3632501 14.2653032 16.6165061 12.882517 13.1945229 9.0219632 10.3598542 8.65145589 10.0935903" id="Fill-6" fill="#008840" mask="url(#mask-14)"/></g><path d="M2.48157193 50.0390646C2.86476029 50.0390646 3.19336499 50.0029053 3.43981851 49.7673221 3.7684232 49.4501066 3.95974171 48.8973078 3.95974171 47.9363474 3.95974171 47.0208601 3.78606641 46.4675134 3.46683467 46.1327661 3.22038115 45.8703374 2.8835062 45.8336302 2.48929083 45.8336302H1.3424825V50.0390646H2.48157193zM.083198739 51.0087909V44.8622604H2.31782093C3.30308367 44.8622604 4.0970279 45.070998 4.58056199 45.5783238 5.05472312 46.0768836 5.30117665 46.8652656 5.30117665 47.9347038 5.30117665 49.0600246 5.03652857 49.8741563 4.52597832 50.3634024 4.04244423 50.8241594 3.41280235 51.0071473 2.44683687 51.0071473L.083198739 51.0087909z" id="Fill-9" fill="#024f9d"/><mask id="mask-16" fill="#fff"><use xlink:href="#path-15"/></mask><g id="Clip-12"/><path id="Fill-11" fill="#024f9d" mask="url(#mask-16)" d="M6.46899142 51.0086265H7.72717248V44.862096H6.46899142z"/><path id="Fill-13" fill="#024f9d" mask="url(#mask-16)" d="M12.2335779 47.7641525 14.3402868 51.0086265H12.9178034L11.1760883 48.3624243H10.4642952V51.0086265H9.2055628V44.862096H10.4642952V47.3910544H11.1485208L12.818009 44.862096H14.1401467z"/><path d="M18.2817789 49.2504635C18.2817789 48.5256342 17.8076177 48.4626294 16.9320737 48.4171563 15.7191033 48.3530558 14.7790513 48.045154 14.7790513 46.6037134 14.7790513 45.2630805 15.8282706 44.7190477 17.3786673 44.7190477 17.697899 44.7190477 18.5552485 44.7826004 19.0387826 44.9453171V45.879432C18.5023189 45.7627361 17.9548282 45.7013749 17.4062348 45.6975398 16.5031232 45.6975398 16.0675566 45.9605164 16.0675566 46.4771559 16.0675566 47.2025331 16.5516421 47.2299265 17.4183645 47.2655379 18.6015619 47.3110109 19.5702842 47.6556199 19.5702842 49.1578738 19.5702842 50.5083683 18.4670325 51.152661 16.8422036 51.152661 16.5135989 51.152661 15.6104873 51.1071879 14.9080672 50.8809185V49.8942083C15.5559037 50.0662388 16.452399 50.1204778 16.8124307 50.1204778 17.9245039 50.1204778 18.2817789 49.7671029 18.2817789 49.2504635" id="Fill-14" fill="#024f9d" mask="url(#mask-16)"/><path id="Fill-15" fill="#024f9d" mask="url(#mask-16)" d="M20.6260646 51.0085717V44.8620412H21.8881051V47.3909997H24.4618077V44.8620412H25.7205401V51.0085717H24.4568455V48.3623695H21.8881051V51.0085717z"/><path d="M30.2316319 48.6432066 29.8032329 47.3562648C29.6295576 46.8215457 29.5016443 46.3772248 29.3913743 45.9871428H29.3638068C29.2540881 46.3772248 29.1261749 46.8215457 28.9519482 47.3562648L28.5279599 48.6432066H30.2316319zM30.5508637 49.5860874H28.1883282L27.7251941 51.0083526H26.4554347L28.682338 44.8623699H30.1241187L32.3477138 51.0083526H31.0250248L30.5508637 49.5860874z" id="Fill-16" fill="#024f9d" mask="url(#mask-16)"/><path d="M30.8664565 15.0172635C30.0482529 15.0172635 29.3844273 15.6763486 29.3844273 16.4899325V22.151052C28.00936 22.6550905 25.5541977 23.6724813 23.696699 25.0870764L23.7000071 25.0909114C22.8713278 25.6886354 22.090616 26.3493641 21.3650392 27.0670711 17.4190261 30.9876142 15.1099717 36.2701569 15.012934 36.4931392 14.6892915 37.240431 15.0366421 38.1071581 15.7881323 38.4282088 16.5407253 38.7503551 17.4124099 38.4051983 17.7360525 37.6579064 17.7581065 37.6069547 19.927118 32.6629943 23.4607212 29.1511608 24.077682 28.5408359 24.7415076 27.9781755 25.4461331 27.4697541L25.4863817 27.4407171C27.7364417 25.7204117 31.2705962 24.6213886 31.3064339 24.6104312 31.9355245 24.4159381 32.3606154 23.8330066 32.3490371 23.1783044V23.1607727 16.4899325C32.3490371 15.6763486 31.6857628 15.0172635 30.8675592 15.0172635H30.8664565z" id="Fill-17" fill="#008840" mask="url(#mask-16)"/></g></g></g></g><g id="Group-23" opacity=".543285" transform="translate(180.184843, 251.000000)"><g id="Group-5"><rect id="Rectangle-6-Copy" stroke="#6d7278" fill-rule="nonzero" x=".5" y=".5" width="65" height="31" rx="15.5"/><text id="Play" font-family="NotoSans-Regular, Noto Sans" font-size="12" font-weight="normal" fill="#6d7278"><tspan x="31.118303" y="19.5">Play</tspan></text></g><g id="Icon-24px" transform="translate(7.118303, 6.116400)"><path id="Shape" d="M0 0H20V20H0z"/><path d="M10 1.66666667C5.4 1.66666667 1.66666667 5.4 1.66666667 10 1.66666667 14.6 5.4 18.3333333 10 18.3333333 14.6 18.3333333 18.3333333 14.6 18.3333333 10 18.3333333 5.4 14.6 1.66666667 10 1.66666667v0zM8.33333333 13.75V6.25L13.3333333 10 8.33333333 13.75v0z" id="Shape" fill="#6d7278"/></g></g></g></g></g></svg>