<?xml version="1.0" encoding="UTF-8"?>
<svg width="21px" height="30px" viewBox="0 0 21 30" version="1.1" xmlns="http://www.w3.org/2000/svg" xmlns:xlink="http://www.w3.org/1999/xlink">
    <title>3BA44B59-E579-4ACD-9B8A-0DC189E51918</title>
    <g id="Website" stroke="none" stroke-width="1" fill="none" fill-rule="evenodd" opacity="0.896600632" stroke-linecap="round" stroke-linejoin="round">
        <g id="assets" transform="translate(-788.000000, -222.000000)" stroke="#4E4C81" stroke-width="2">
            <g id="icon/getapp" transform="translate(789.000000, 223.000000)">
                <g id="Group-37" transform="translate(0.900000, 0.000000)">
                    <g id="Group-13" transform="translate(0.111111, 0.666667)">
                        <path d="M14.1981331,26.1777773 L2.53271105,26.1777773 C1.15884441,26.1777773 0.0438222063,25.0627551 0.0438222063,23.6888885 L0.0438222063,2.53333328 C0.0438222063,1.15946663 1.15884441,0.0444444285 2.53271105,0.0444444285 L14.1981331,0.0444444285 C15.5719997,0.0444444285 16.6870219,1.15946663 16.6870219,2.53333328 L16.6870219,23.6888885 C16.6870219,25.0627551 15.5719997,26.1777773 14.1981331,26.1777773 Z" id="Stroke-1"></path>
                        <line x1="0.731626639" y1="3.7777777" x2="15.9437153" y2="3.7777777" id="Stroke-3"></line>
                        <line x1="0.731626639" y1="22.444444" x2="15.9437153" y2="22.444444" id="Stroke-5"></line>
                        <polyline id="Stroke-7" points="5.64444433 11.2541509 8.36604429 14.9974397 11.2444442 11.2541509"></polyline>
                        <line x1="8.44444429" y1="7.52081763" x2="8.44444429" y2="14.7385953" id="Stroke-9"></line>
                        <line x1="3.7777777" y1="16.8541508" x2="13.1111109" y2="16.8541508" id="Stroke-11"></line>
                    </g>
                </g>
            </g>
        </g>
    </g>
</svg>