<?xml version="1.0" encoding="UTF-8"?>
<svg width="32px" height="28px" viewBox="0 0 32 28" version="1.1" xmlns="http://www.w3.org/2000/svg" xmlns:xlink="http://www.w3.org/1999/xlink">
    <title>327C60BC-C85E-4C10-95AF-989A7D7E99D7</title>
    <g id="Website" stroke="none" stroke-width="1" fill="none" fill-rule="evenodd">
        <g id="assets" transform="translate(-546.000000, -223.000000)" stroke="#4E4C81" stroke-width="2">
            <g id="icon/home" transform="translate(546.000000, 223.000000)">
                <g id="Group-46-Copy" transform="translate(0.000000, 0.500000)">
                    <path d="M16,1.28811217 C16.9485487,1.28811217 17.8970974,1.62399227 18.6543895,2.29575247 L18.6543895,2.29575247 L29.365591,11.7971839 L26.9069935,11.797063 L26.9070662,23.0147307 C26.9070662,23.5670154 26.6832086,24.0670154 26.3212798,24.4289442 C25.9593509,24.790873 25.4593509,25.0147307 24.9070662,25.0147307 L24.9070662,25.0147307 L6.9070662,25.0147307 C6.35478145,25.0147307 5.85478145,24.790873 5.49285264,24.4289442 C5.13092382,24.0670154 4.9070662,23.5670154 4.9070662,23.0147242 L4.9070662,23.0147242 L4.90699352,11.7970606 L2.63441596,11.7971778 L13.3456105,2.29575247 C14.1029026,1.62399227 15.0514513,1.28811217 16,1.28811217 Z" id="Combined-Shape"></path>
                    <g id="Rectangle" transform="translate(11.407899, 14.014731)">
                        <path d="M6.76025553,1.01044831 C7.03639791,1.01044831 7.28639791,1.12237712 7.46736231,1.30334153 C7.64832672,1.48430593 7.76025553,1.73430593 7.76025553,2.01044831 L7.76025553,2.01044831 L7.76025553,10.8873889 L1.19929033,10.8873889 L1.19929033,2.01044831 C1.19929033,1.73430593 1.31121914,1.48430593 1.49218355,1.30334153 C1.67314795,1.12237712 1.92314795,1.01044831 2.19929033,1.01044831 L2.19929033,1.01044831 Z"></path>
                    </g>
                </g>
            </g>
        </g>
    </g>
</svg>