<?xml version="1.0" encoding="UTF-8"?>
<!DOCTYPE svg PUBLIC "-//W3C//DTD SVG 1.1//EN" "http://www.w3.org/Graphics/SVG/1.1/DTD/svg11.dtd">
<!-- Creator: CorelDRAW X6 -->
<svg xmlns="http://www.w3.org/2000/svg" xml:space="preserve" width="2.28714in" height="3.36513in" version="1.1" style="shape-rendering:geometricPrecision; text-rendering:geometricPrecision; image-rendering:optimizeQuality; fill-rule:evenodd; clip-rule:evenodd"
viewBox="0 0 2287 3365"
 xmlns:xlink="http://www.w3.org/1999/xlink">
 <defs>
  <style type="text/css">
   <![CDATA[
    .fil1 {fill:#2957A4}
    .fil0 {fill:#F58634}
    .fil2 {fill:#F58634;fill-rule:nonzero}
   ]]>
  </style>
 </defs>
 <g id="Layer_x0020_1">
  <metadata id="CorelCorpID_0Corel-Layer"/>
  <g id="_174836896">
   <path class="fil0" d="M413 245c44,50 53,160 12,237 -70,124 -210,139 -277,12 -44,-104 -41,-207 26,-316 23,-35 47,-68 73,-98 26,-30 55,-47 84,-80 0,68 9,139 35,201 32,83 6,157 -20,243 32,-24 41,-44 58,-53 15,-44 17,-92 9,-145z"/>
   <path class="fil1" d="M23 668c309,0 618,0 927,0 769,-27 1241,370 1323,1325 0,337 0,674 0,1011 -189,3 -379,6 -568,9 460,-541 455,-1295 0,-1780 -353,-370 -912,-346 -1276,195 -259,473 -294,1029 149,1585 -189,0 -379,0 -568,0 3,-784 12,-1564 14,-2345z"/>
   <path class="fil1" d="M1150 1201c382,0 693,408 693,911 0,500 -312,908 -693,908 -382,0 -694,-408 -694,-908 0,-503 312,-911 694,-911zm0 482c0,95 0,192 0,290 84,0 166,0 250,0 0,186 0,373 0,556 -38,429 -522,343 -492,0 84,0 154,0 242,0 0,-95 0,-192 0,-290 -87,0 -172,0 -259,0 0,-186 0,-373 0,-556 58,-399 475,-367 510,0 -84,0 -166,0 -250,0z"/>
   <path class="fil0" d="M1115 2830c-653,-160 -1096,-662 -1090,-2162 166,-3 332,0 501,-3 -262,1257 17,1884 589,2165z"/>
   <path class="fil1" d="M1115 2830c-670,-127 -1023,-765 -962,-2164 169,-3 27,0 196,0 -175,1254 93,2004 766,2164z"/>
   <path class="fil2" d="M138 3159l-6 -6 -6 -7c-2,-2 -4,-4 -6,-6 -1,-1 -2,-2 -3,-3 -3,-2 -5,-4 -6,-5l-15 -12c-4,-3 -9,-6 -15,-8 -6,-3 -11,-4 -15,-5 -3,1 -6,2 -8,3 -5,2 -10,7 -13,15 -1,5 -2,10 -2,14l0 6 1 7 2 5 1 2 23 0 0 11 -22 0 0 136 -24 0 0 -136 -23 0 0 -11 23 0 -1 -2 -2 -7 -2 -8 0 -5c0,-5 1,-11 3,-16 6,-17 19,-26 38,-26l10 0c6,0 13,1 21,4 15,6 29,15 42,26l19 17 7 9 8 8 -10 0 -17 0zm35 12l0 136 -24 0 0 -37 -1 1 0 1 -8 3 -8 1 -10 0c-11,0 -20,-4 -27,-11 -4,-4 -7,-8 -9,-13 -2,-4 -3,-9 -3,-16 0,-10 3,-20 10,-28 7,-8 15,-13 25,-13l10 0c1,0 3,0 5,1l5 1 5 1c1,0 2,0 4,1l3 15 -10 0 -3 -2 -2 -1 -4 -2 -4 -1c-5,1 -9,3 -11,7 -2,2 -3,5 -4,9 -1,4 -2,7 -2,11 0,9 2,16 6,21 2,3 4,4 5,5l7 3 3 -1 3 -1 3 -1 3 -2c4,-2 6,-4 7,-5 2,-2 4,-4 5,-7l0 -75 -86 0 0 -12 134 0 0 12 -24 0zm163 0l0 136 -24 0 0 -31 -7 5 -9 5c-11,6 -22,9 -33,9l-10 0c-3,0 -8,-1 -16,-2 -7,-3 -13,-9 -17,-18 -1,-4 -2,-8 -2,-11 0,-4 0,-7 1,-9 0,-3 1,-6 3,-8l2 -2 2 -2c-3,0 -8,-3 -13,-9 -2,-2 -4,-7 -6,-13 0,-1 0,-2 0,-5 0,-9 4,-16 11,-20l5 -1 7 -1 33 0 0 -22 -73 0 0 -12 164 0 0 12 -19 0zm-24 0l-26 0 0 34 -42 0c-1,0 -3,0 -6,1 -1,0 -2,0 -4,1 -1,1 -2,2 -3,4l-1 6c0,4 1,8 4,11l3 3 2 2 6 -2 4 -1 10 0 5 0 4 0 8 1 5 11 -10 0 -2 0 -7 0c-6,0 -11,2 -15,5 -4,3 -6,8 -6,14 0,3 1,5 2,8 1,2 3,5 5,7l5 3 6 2c2,0 4,-1 8,-1 7,-3 13,-5 17,-8 2,-1 5,-3 9,-6 11,-7 17,-12 19,-16l0 -80zm88 0l0 136 -24 0 0 -136 -25 0 0 -12 74 0 0 12 -25 0zm118 91l-9 7c-10,8 -22,12 -34,11l-10 0c-4,0 -8,-1 -12,-2 -9,-3 -15,-9 -19,-17 -2,-4 -3,-8 -3,-12 0,-6 2,-13 6,-19l3 -3 4 -4c-5,-3 -10,-8 -16,-15l-5 -10c-1,-4 -2,-7 -2,-11 0,-9 2,-15 7,-21 5,-5 11,-8 19,-8l10 0c3,0 6,1 9,2 6,1 10,5 13,12 1,3 2,6 2,9l0 9 -22 0 0 -9c0,-2 -1,-4 -2,-6 -1,-2 -2,-4 -4,-5l-3 2 -2 3 -3 6 -1 7c0,8 2,14 6,19l4 5 4 3 6 -1 7 -1 10 0c1,0 3,0 5,1l5 1 6 11 -17 1c-11,1 -18,3 -22,9 -3,3 -4,8 -4,14 0,6 2,10 6,14l5 3 6 2 6 -2 7 -3 6 -4 7 -5 6 -6 7 -8 10 0 0 15c0,2 -1,3 -4,5zm-16 -91l-18 0 0 -11 18 0 0 11zm-18 0l18 0m45 0l0 136 -24 0 0 -136 -25 0 0 -12 74 0 0 12 -25 0zm139 0l0 136 -24 0 0 -85 -38 0 0 25 0 4c0,1 0,1 -1,2l-2 2 -3 1 -10 0c-1,0 -3,-1 -6,-3l-9 -11c-3,-3 -6,-7 -8,-13 -2,-3 -3,-6 -3,-8 0,-4 1,-7 4,-8l2 -1 3 0 71 0 0 -39 -96 0 0 -12 141 0 0 12 -21 0zm135 0l0 136 -24 0 0 -72 -37 0 0 20 0 3c0,0 0,1 0,2l-2 2 -3 1 -10 0c-2,0 -4,-1 -7,-3 0,0 -2,-2 -4,-4 -4,-5 -7,-9 -10,-11 -4,-5 -6,-10 -6,-13l1 -4c1,-1 2,-2 3,-3l1 -1 3 -1 11 0 0 -51 -33 0 0 -12 136 0 0 12 -19 0zm-24 0l-37 0 0 51 37 0 0 -51zm44 194l-10 0 -34 -42 12 -6 10 0 28 41 -5 7zm259 -194l0 136 -24 0 0 -74 -36 0 -9 -12 45 0 0 -50 -38 0 0 48c0,2 -1,3 -1,3l-2 6c-1,2 -3,5 -5,7 -2,2 -5,3 -9,4 -1,0 -2,0 -3,1l-3 0 -13 0c-1,0 -2,0 -4,-1l10 0 16 27 7 10 12 16 5 6 -11 10 -10 0c-3,-1 -7,-6 -12,-14l-32 -51 -7 -13 -5 -9 -5 -9 11 -8 10 0 8 16c1,3 3,5 4,6l6 3 2 -1 2 -2 2 -4 0 -6 0 -4 0 -39 -61 0 0 -12 168 0 0 12 -21 0zm125 0l0 136 -24 0 0 -37 -1 1 0 1 -8 3 -8 1 -10 0c-11,0 -20,-4 -27,-11 -4,-4 -7,-8 -9,-13 -2,-4 -3,-9 -3,-16 0,-10 3,-20 10,-28 7,-8 15,-13 25,-13l10 0c2,0 3,0 4,1l5 1 5 1c1,0 2,0 4,1l3 15 -10 0 -3 -2 -2 -1 -4 -2 -4 -1c-5,1 -9,3 -11,7 -2,2 -3,5 -4,9 -1,4 -2,7 -2,11 0,9 2,16 6,21 2,3 4,4 5,5l7 3 3 -1 3 -1 3 -1 3 -2c4,-2 6,-4 7,-5 2,-2 4,-4 5,-7l0 -75 -86 0 0 -12 134 0 0 12 -24 0zm10 -67l-2 -1 -4 -1c-3,1 -6,2 -8,5 -2,2 -3,4 -4,6 -1,2 -1,5 -1,9 0,5 1,9 2,14 1,4 3,9 6,13l4 5 5 7 -11 0 -10 0c0,0 -1,-1 -1,-1 -1,0 -1,-2 -2,-3l-6 -10c-2,-4 -4,-9 -7,-16 -2,-5 -2,-10 -2,-14 0,-8 3,-14 8,-18 5,-5 12,-7 20,-7l10 0c0,0 1,0 3,0 1,0 3,0 5,1l7 3 0 11 -10 0 -2 -1zm118 158l-9 7c-10,8 -22,12 -34,11l-10 0c-4,0 -8,-1 -12,-2 -9,-3 -15,-9 -19,-17 -2,-4 -3,-8 -3,-12 0,-6 2,-13 7,-19l2 -3 4 -4c-5,-3 -10,-8 -16,-15l-5 -10c-1,-4 -2,-7 -2,-11 0,-9 2,-15 7,-21 5,-5 11,-8 19,-8l10 0c4,0 6,1 9,2 6,1 10,5 13,12 1,3 2,6 2,9l0 9 -22 0 0 -9c0,-2 0,-4 -1,-6 -1,-2 -2,-4 -4,-5l-3 2 -2 3 -3 6 -1 7c0,8 2,14 6,19l4 5 4 3 6 -1 8 -1 10 0c2,0 3,0 4,1l5 1 6 11 -17 1c-11,1 -18,3 -22,9 -3,3 -4,8 -4,14 0,6 2,10 6,14l5 3 6 2 6 -2 7 -3 6 -4 7 -5 6 -6 7 -8 10 0 0 15c0,2 -1,3 -4,5zm-16 -91l-18 0 0 -11 18 0 0 11zm-18 0l18 0m45 0l0 136 -24 0 0 -136 -25 0 0 -12 75 0 0 12 -25 0zm139 0l0 136 -24 0 0 -85 -38 0 0 25 0 4c0,1 0,1 -1,2l-2 2 -3 1 -10 0c-1,0 -3,-1 -6,-3l-10 -11c-3,-3 -5,-7 -8,-13 -2,-3 -3,-6 -3,-8 0,-4 1,-7 4,-8l2 -1 3 0 71 0 0 -39 -96 0 0 -12 141 0 0 12 -21 0zm21 -44l-28 0 0 -19 28 0 0 19zm-28 0l28 0m223 44l0 136 -24 0 0 -49c-2,2 -5,3 -9,5l-8 1 -10 0c-11,0 -20,-4 -26,-11 -2,-2 -4,-6 -8,-13 -2,-5 -3,-10 -3,-15l0 -53 -20 0 0 -12 129 0 0 12 -21 0zm-24 0l-40 0 0 55c0,9 3,16 8,20l4 4 5 2c1,0 1,0 2,-1 1,0 1,0 2,0 2,-1 3,-1 4,-2 2,-1 4,-3 8,-6l3 -4 4 -6 0 -62zm-40 136l-10 0 -9 -11 72 -50 10 0 0 12 -63 49zm192 -45l-9 7c-10,8 -22,12 -34,11l-10 0c-4,0 -8,-1 -12,-2 -9,-3 -15,-9 -19,-17 -2,-4 -3,-8 -3,-12 0,-6 2,-13 7,-19l2 -3 4 -4c-5,-3 -10,-8 -16,-15l-5 -10c-1,-4 -2,-7 -2,-11 0,-9 2,-15 7,-21 5,-5 11,-8 19,-8l10 0c4,0 6,1 9,2 6,1 10,5 13,12 1,3 2,6 2,9l0 9 -22 0 0 -9c0,-2 0,-4 -1,-6 -1,-2 -2,-4 -5,-5l-3 2 -2 3 -3 6 -1 7c0,8 2,14 6,19l4 5 4 3 6 -1 8 -1 10 0c2,0 3,0 5,1l5 1 6 11 -17 1c-11,1 -18,3 -22,9 -3,3 -4,8 -4,14 0,6 2,10 6,14l5 3 6 2 6 -2 7 -3 6 -4 7 -5 6 -6 7 -8 10 0 0 15c0,2 -1,3 -4,5zm-16 -91l-18 0 0 -11 18 0 0 11zm-18 0l18 0m45 0l0 136 -24 0 0 -136 -25 0 0 -12 74 0 0 12 -25 0zm66 0l0 136 -24 0 0 -136 -25 0 0 -12 74 0 0 12 -25 0zm139 0l0 136 -24 0 0 -85 -38 0 0 25 0 4c0,1 0,1 -1,2l-2 2 -3 1 -10 0c-1,0 -3,-1 -6,-3l-10 -11c-3,-3 -6,-7 -8,-13 -2,-3 -3,-6 -3,-8 0,-4 2,-7 4,-8l2 -1 3 0 71 0 0 -39 -96 0 0 -12 141 0 0 12 -21 0zm135 0l0 136 -24 0 0 -72 -37 0 0 20 0 3c0,0 0,1 -1,2l-2 2 -3 1 -10 0c-2,0 -4,-1 -6,-3 -1,0 -2,-2 -4,-4 -4,-5 -8,-9 -10,-11 -4,-5 -6,-10 -6,-13l1 -4c1,-1 2,-2 3,-3l1 -1 3 -1 11 0 0 -51 -33 0 0 -12 136 0 0 12 -19 0zm-24 0l-37 0 0 51 37 0 0 -51zm44 194l-10 0 -34 -42 12 -6 10 0 28 41 -5 7z"/>
  </g>
 </g>
</svg>
