<?xml version="1.0" encoding="UTF-8"?>
<svg width="16px" height="17px" viewBox="0 0 16 17" version="1.1" xmlns="http://www.w3.org/2000/svg" xmlns:xlink="http://www.w3.org/1999/xlink">
    <title>8CC89B4C-D587-48F4-8D45-56985AA63B80</title>
    <g id="Website" stroke="none" stroke-width="1" fill="none" fill-rule="evenodd">
        <g id="Home" transform="translate(-1134.000000, -500.000000)" fill="#6D7278">
            <g id="Group-52" transform="translate(447.000000, 166.000000)">
                <g id="Group-11" transform="translate(687.000000, 333.348837)">
                    <g id="icon/question-copy" transform="translate(0.000000, 1.000000)">
                        <path d="M8,0 C3.584,0 0,3.584 0,8 C0,12.416 3.584,16 8,16 C12.416,16 16,12.416 16,8 C16,3.584 12.416,0 8,0 L8,0 Z M8.66722425,12.6705698 L7.33277575,12.6705698 L7.33277575,11.3361213 L8.66722425,11.3361213 L8.66722425,12.6705698 L8.66722425,12.6705698 Z M10.0483784,7.49958181 L9.44787662,8.11342812 C8.96747516,8.60050183 8.66722425,9.00083638 8.66722425,10.0016728 L7.33277575,10.0016728 L7.33277575,9.66806063 C7.33277575,8.93411395 7.63302666,8.2668897 8.11342812,7.779816 L8.94078619,6.93911344 C9.18765917,6.69891271 9.3344485,6.36530059 9.3344485,5.99832725 C9.3344485,5.26438057 8.73394668,4.66387875 8,4.66387875 C7.26605332,4.66387875 6.6655515,5.26438057 6.6655515,5.99832725 L5.331103,5.99832725 C5.331103,4.52376165 6.52543441,3.32943024 8,3.32943024 C9.47456559,3.32943024 10.668897,4.52376165 10.668897,5.99832725 C10.668897,6.58548459 10.4286963,7.11926399 10.0483784,7.49958181 L10.0483784,7.49958181 Z" id="Shape"></path>
                    </g>
                </g>
            </g>
        </g>
    </g>
</svg>